<?xml version="1.0" encoding="UTF-8" standalone="no"?>
<!-- Created with Inkscape (http://www.inkscape.org/) -->

<svg
   version="1.1"
   id="svg2"
   width="212.77853"
   height="212.7894"
   viewBox="0 0 212.77853 212.7894"
   sodipodi:docname="logo.svg"
   xml:space="preserve"
   inkscape:version="1.2.2 (732a01da63, 2022-12-09)"
   inkscape:export-filename="bg.pdf"
   inkscape:export-xdpi="96"
   inkscape:export-ydpi="96"
   xmlns:inkscape="http://www.inkscape.org/namespaces/inkscape"
   xmlns:sodipodi="http://sodipodi.sourceforge.net/DTD/sodipodi-0.dtd"
   xmlns="http://www.w3.org/2000/svg"
   xmlns:svg="http://www.w3.org/2000/svg"><defs
     id="defs6"><clipPath
       clipPathUnits="userSpaceOnUse"
       id="clipPath4122"><path
         d="M 24,23 H 60 V 57 H 24 Z"
         id="path4120" /></clipPath><clipPath
       clipPathUnits="userSpaceOnUse"
       id="clipPath4130"><path
         d="M 0,0 H 300 V 86 H 0 Z"
         id="path4128" /></clipPath><clipPath
       clipPathUnits="userSpaceOnUse"
       id="clipPath4134"><path
         d="M 24,23 H 60 V 57 H 24 Z"
         id="path4132" /></clipPath><clipPath
       clipPathUnits="userSpaceOnUse"
       id="clipPath4138"><path
         d="m 37.965,35.961 4.066,5.598 V 23.445 Z m 4.066,5.598 -4.066,-5.598 h -13.16 l 10.648,7.734 -4.066,12.516 10.644,-14.652 v 6.918 l 10.649,7.734 -4.071,-12.516 -6.578,-2.136 6.578,2.136 10.649,-7.734 -17.227,5.598 17.227,-5.598 H 46.098 L 42.031,23.445 Z M 31.387,56.211 42.031,48.477 v -6.918 z"
         id="path4136" /></clipPath><clipPath
       clipPathUnits="userSpaceOnUse"
       id="clipPath4142"><path
         d="M 0,0 H 300 V 86 H 0 Z"
         id="path4140" /></clipPath><clipPath
       clipPathUnits="userSpaceOnUse"
       id="clipPath4146"><path
         d="M 24.805,23.445 H 59.258 V 56.211 H 24.805 Z"
         id="path4144" /></clipPath><radialGradient
       fx="0"
       fy="0"
       cx="0"
       cy="0"
       r="16.810087"
       gradientUnits="userSpaceOnUse"
       gradientTransform="translate(42.031486,39.82845)"
       spreadMethod="pad"
       id="radialGradient4288"><stop
         style="stop-opacity:1;stop-color:#e0d62c"
         offset="0"
         id="stop4148" /><stop
         style="stop-opacity:1;stop-color:#e1d62b"
         offset="0.25"
         id="stop4150" /><stop
         style="stop-opacity:1;stop-color:#e1d52b"
         offset="0.34375"
         id="stop4152" /><stop
         style="stop-opacity:1;stop-color:#e1d42b"
         offset="0.382813"
         id="stop4154" /><stop
         style="stop-opacity:1;stop-color:#e2d42b"
         offset="0.417969"
         id="stop4156" /><stop
         style="stop-opacity:1;stop-color:#e2d32b"
         offset="0.453125"
         id="stop4158" /><stop
         style="stop-opacity:1;stop-color:#e2d22a"
         offset="0.484375"
         id="stop4160" /><stop
         style="stop-opacity:1;stop-color:#e3d12a"
         offset="0.515625"
         id="stop4162" /><stop
         style="stop-opacity:1;stop-color:#e3d02a"
         offset="0.542969"
         id="stop4164" /><stop
         style="stop-opacity:1;stop-color:#e4cf29"
         offset="0.570313"
         id="stop4166" /><stop
         style="stop-opacity:1;stop-color:#e4cf29"
         offset="0.59375"
         id="stop4168" /><stop
         style="stop-opacity:1;stop-color:#e4ce29"
         offset="0.605469"
         id="stop4170" /><stop
         style="stop-opacity:1;stop-color:#e5ce29"
         offset="0.617188"
         id="stop4172" /><stop
         style="stop-opacity:1;stop-color:#e5cd29"
         offset="0.628906"
         id="stop4174" /><stop
         style="stop-opacity:1;stop-color:#e5cc28"
         offset="0.648438"
         id="stop4176" /><stop
         style="stop-opacity:1;stop-color:#e6cc28"
         offset="0.65625"
         id="stop4178" /><stop
         style="stop-opacity:1;stop-color:#e6cb28"
         offset="0.664063"
         id="stop4180" /><stop
         style="stop-opacity:1;stop-color:#e6cb28"
         offset="0.671875"
         id="stop4182" /><stop
         style="stop-opacity:1;stop-color:#e6ca28"
         offset="0.679688"
         id="stop4184" /><stop
         style="stop-opacity:1;stop-color:#e6ca28"
         offset="0.6875"
         id="stop4186" /><stop
         style="stop-opacity:1;stop-color:#e7c927"
         offset="0.695313"
         id="stop4188" /><stop
         style="stop-opacity:1;stop-color:#e7c827"
         offset="0.710938"
         id="stop4190" /><stop
         style="stop-opacity:1;stop-color:#e7c827"
         offset="0.71875"
         id="stop4192" /><stop
         style="stop-opacity:1;stop-color:#e8c727"
         offset="0.726563"
         id="stop4194" /><stop
         style="stop-opacity:1;stop-color:#e8c727"
         offset="0.734375"
         id="stop4196" /><stop
         style="stop-opacity:1;stop-color:#e8c626"
         offset="0.742188"
         id="stop4198" /><stop
         style="stop-opacity:1;stop-color:#e9c626"
         offset="0.75"
         id="stop4200" /><stop
         style="stop-opacity:1;stop-color:#e9c526"
         offset="0.757813"
         id="stop4202" /><stop
         style="stop-opacity:1;stop-color:#e9c426"
         offset="0.769531"
         id="stop4204" /><stop
         style="stop-opacity:1;stop-color:#eac325"
         offset="0.78125"
         id="stop4206" /><stop
         style="stop-opacity:1;stop-color:#eac225"
         offset="0.792969"
         id="stop4208" /><stop
         style="stop-opacity:1;stop-color:#ebc125"
         offset="0.804688"
         id="stop4210" /><stop
         style="stop-opacity:1;stop-color:#ebc125"
         offset="0.808594"
         id="stop4212" /><stop
         style="stop-opacity:1;stop-color:#ebc125"
         offset="0.8125"
         id="stop4214" /><stop
         style="stop-opacity:1;stop-color:#ebc024"
         offset="0.816406"
         id="stop4216" /><stop
         style="stop-opacity:1;stop-color:#ecbf24"
         offset="0.824219"
         id="stop4218" /><stop
         style="stop-opacity:1;stop-color:#ecbf24"
         offset="0.832031"
         id="stop4220" /><stop
         style="stop-opacity:1;stop-color:#ecbe24"
         offset="0.839844"
         id="stop4222" /><stop
         style="stop-opacity:1;stop-color:#edbd23"
         offset="0.847656"
         id="stop4224" /><stop
         style="stop-opacity:1;stop-color:#edbc23"
         offset="0.855469"
         id="stop4226" /><stop
         style="stop-opacity:1;stop-color:#edbc23"
         offset="0.863281"
         id="stop4228" /><stop
         style="stop-opacity:1;stop-color:#eebb23"
         offset="0.871094"
         id="stop4230" /><stop
         style="stop-opacity:1;stop-color:#eeba22"
         offset="0.878906"
         id="stop4232" /><stop
         style="stop-opacity:1;stop-color:#eeba22"
         offset="0.882813"
         id="stop4234" /><stop
         style="stop-opacity:1;stop-color:#efb922"
         offset="0.886719"
         id="stop4236" /><stop
         style="stop-opacity:1;stop-color:#efb922"
         offset="0.890625"
         id="stop4238" /><stop
         style="stop-opacity:1;stop-color:#efb822"
         offset="0.894531"
         id="stop4240" /><stop
         style="stop-opacity:1;stop-color:#efb822"
         offset="0.898438"
         id="stop4242" /><stop
         style="stop-opacity:1;stop-color:#efb822"
         offset="0.902344"
         id="stop4244" /><stop
         style="stop-opacity:1;stop-color:#f0b721"
         offset="0.90625"
         id="stop4246" /><stop
         style="stop-opacity:1;stop-color:#f0b621"
         offset="0.910156"
         id="stop4248" /><stop
         style="stop-opacity:1;stop-color:#f0b521"
         offset="0.917969"
         id="stop4250" /><stop
         style="stop-opacity:1;stop-color:#f1b521"
         offset="0.925781"
         id="stop4252" /><stop
         style="stop-opacity:1;stop-color:#f1b420"
         offset="0.933594"
         id="stop4254" /><stop
         style="stop-opacity:1;stop-color:#f2b320"
         offset="0.941406"
         id="stop4256" /><stop
         style="stop-opacity:1;stop-color:#f2b220"
         offset="0.945313"
         id="stop4258" /><stop
         style="stop-opacity:1;stop-color:#f2b220"
         offset="0.949219"
         id="stop4260" /><stop
         style="stop-opacity:1;stop-color:#f2b120"
         offset="0.953125"
         id="stop4262" /><stop
         style="stop-opacity:1;stop-color:#f3b11f"
         offset="0.957031"
         id="stop4264" /><stop
         style="stop-opacity:1;stop-color:#f3b01f"
         offset="0.960938"
         id="stop4266" /><stop
         style="stop-opacity:1;stop-color:#f3b01f"
         offset="0.964844"
         id="stop4268" /><stop
         style="stop-opacity:1;stop-color:#f3af1f"
         offset="0.96875"
         id="stop4270" /><stop
         style="stop-opacity:1;stop-color:#f4af1f"
         offset="0.972656"
         id="stop4272" /><stop
         style="stop-opacity:1;stop-color:#f4ae1f"
         offset="0.976563"
         id="stop4274" /><stop
         style="stop-opacity:1;stop-color:#f4ae1e"
         offset="0.980469"
         id="stop4276" /><stop
         style="stop-opacity:1;stop-color:#f5ad1e"
         offset="0.984375"
         id="stop4278" /><stop
         style="stop-opacity:1;stop-color:#f5ad1e"
         offset="0.988281"
         id="stop4280" /><stop
         style="stop-opacity:1;stop-color:#f5ac1e"
         offset="0.992188"
         id="stop4282" /><stop
         style="stop-opacity:1;stop-color:#f5ab1e"
         offset="0.996094"
         id="stop4284" /><stop
         style="stop-opacity:1;stop-color:#f5ab1e"
         offset="1"
         id="stop4286" /></radialGradient></defs><sodipodi:namedview
     id="namedview4"
     pagecolor="#ffffff"
     bordercolor="#000000"
     borderopacity="0.25"
     inkscape:showpageshadow="2"
     inkscape:pageopacity="0.0"
     inkscape:pagecheckerboard="0"
     inkscape:deskcolor="#d1d1d1"
     showgrid="false"
     inkscape:zoom="0.30125695"
     inkscape:cx="1133.5838"
     inkscape:cy="901.22402"
     inkscape:window-width="1920"
     inkscape:window-height="1001"
     inkscape:window-x="-9"
     inkscape:window-y="-9"
     inkscape:window-maximized="1"
     inkscape:current-layer="g8" /><g
     inkscape:groupmode="layer"
     inkscape:label="Image"
     id="g8"
     transform="translate(-80.450439,-66.94812)"><g
       id="g4092"
       inkscape:label="Page 1"
       transform="matrix(2.7146006,0,0,2.7146006,72.740977,59.026913)"><g
         id="g4094"><path
           d="m 42.031,80.203 c -21.004,0 -38.09,-17.09 -38.09,-38.094 0,-21.004 17.086,-38.089 38.09,-38.089 21.004,0 38.094,17.085 38.094,38.089 0,21.004 -17.09,38.094 -38.094,38.094"
           style="fill:#fff900;fill-opacity:1;fill-rule:evenodd;stroke:none"
           id="path4096" /><path
           d="M 42.031,2.918 C 20.422,2.918 2.84,20.5 2.84,42.109 c 0,21.614 17.582,39.196 39.191,39.196 21.61,0 39.192,-17.582 39.192,-39.196 C 81.223,20.5 63.641,2.918 42.031,2.918 m 0,2.199 c 20.43,0 36.992,16.563 36.992,36.992 0,20.43 -16.562,36.993 -36.992,36.993 C 21.602,79.102 5.039,62.539 5.039,42.109 5.039,21.68 21.602,5.117 42.031,5.117"
           style="fill:#fff900;fill-opacity:1;fill-rule:nonzero;stroke:none"
           id="path4098" /><path
           d="m 42.031,5.117 c -20.429,0 -36.992,16.563 -36.992,36.992 0,20.43 16.563,36.993 36.992,36.993 20.43,0 36.992,-16.563 36.992,-36.993 C 79.023,21.68 62.461,5.117 42.031,5.117 m 0,0.051 c 9.867,0 19.145,3.844 26.121,10.82 6.981,6.977 10.821,16.254 10.821,26.121 0,9.868 -3.84,19.145 -10.821,26.121 C 61.176,75.211 51.898,79.055 42.031,79.055 32.164,79.055 22.887,75.211 15.91,68.23 8.934,61.254 5.09,51.977 5.09,42.109 5.09,32.242 8.934,22.965 15.91,15.988 22.887,9.012 32.164,5.168 42.031,5.168"
           style="fill:#000000;fill-opacity:1;fill-rule:nonzero;stroke:none"
           id="path4100" /><path
           d="m 42.031,16.172 c -14.324,0 -25.937,11.613 -25.937,25.937 0,14.325 11.613,25.938 25.937,25.938 14.324,0 25.938,-11.613 25.938,-25.938 0,-14.324 -11.614,-25.937 -25.938,-25.937 m 0,0.051 c 14.274,0 25.887,11.613 25.887,25.886 0,14.278 -11.613,25.887 -25.887,25.887 -14.273,0 -25.886,-11.609 -25.886,-25.887 0,-14.273 11.613,-25.886 25.886,-25.886"
           style="fill:#000000;fill-opacity:1;fill-rule:nonzero;stroke:none"
           id="path4102" /><path
           d="m 65.945,42.109 c 0,13.207 -10.707,23.911 -23.914,23.911 -13.207,0 -23.91,-10.704 -23.91,-23.911 0,-13.203 10.703,-23.91 23.91,-23.91 13.207,0 23.914,10.707 23.914,23.91"
           style="fill:#2f7cc1;fill-opacity:1;fill-rule:evenodd;stroke:none"
           id="path4104" /><path
           d="m 35.98,62.156 0.864,-0.121 -0.68,2.156 0.594,0.196 c 0.125,-0.188 0.988,-2.883 1,-3.153 -0.832,-0.175 -0.289,-0.027 -0.981,0.227 -0.347,0.125 -0.797,0.102 -0.797,0.695 m 9.282,0.125 0.558,-0.097 c 0.075,-0.215 0.172,-0.836 0.598,-0.446 0.449,0.414 -0.277,0.719 -0.277,0.719 l 0.105,0.461 c 0.211,-0.051 0.445,-0.18 0.637,-0.07 0.215,0.125 0.418,0.882 -0.18,0.953 -0.308,0.039 -0.344,-0.106 -0.41,-0.336 l -0.586,0.265 c 0.293,1.196 2.391,0.571 2.016,-0.699 -0.121,-0.402 -0.317,-0.578 -0.782,-0.617 0.102,-0.234 0.348,-0.555 0.164,-0.906 -0.253,-0.473 -0.949,-0.524 -1.292,-0.348 -0.461,0.227 -0.657,0.578 -0.551,1.121 m -2.692,-0.496 -0.168,1.684 c 0.125,0.062 0.176,0.082 0.356,0.09 0.41,0.019 0.308,-0.422 0.816,-0.211 0.469,0.199 0.328,0.863 0.063,1.129 -0.438,0.058 -0.481,-0.145 -0.688,-0.391 l -0.601,0.109 c 0.371,1.735 2.984,0.493 2.011,-0.957 -0.261,-0.394 -0.613,-0.543 -1.25,-0.398 0.024,-0.707 -0.023,-0.395 1.188,-0.539 L 44.234,61.68 Z m -2.105,1.742 c -0.02,0.274 -0.102,0.563 -0.274,0.68 -0.355,0.246 -0.445,-0.059 -0.562,-0.273 L 39.02,63.918 c 0.054,1.098 1.332,1.129 1.82,0.535 0.402,-0.484 0.535,-1.914 0.129,-2.492 -0.461,-0.652 -1.551,-0.68 -1.875,0.297 -0.305,0.898 0.453,1.742 1.371,1.269 m -0.547,-1.418 c 0.566,-0.339 0.789,0.84 0.348,1.043 -0.637,0.293 -0.75,-0.804 -0.348,-1.043"
           style="fill:#f3eb00;fill-opacity:1;fill-rule:evenodd;stroke:none"
           id="path4106" /><path
           d="m 44.52,60.215 c 1.937,-0.067 3.894,-0.141 5.839,-0.098 0.957,0.024 1.918,0.063 2.868,0.078 0.679,0.012 2.355,0.149 2.906,0.051 -0.344,-0.207 -2.121,-0.543 -2.656,-0.629 -1.883,-0.301 -4.368,-0.359 -6.254,-0.082 -0.551,0.082 -2.418,0.41 -2.703,0.68 m -16.59,0.043 c 0.8,0.074 2.062,-0.043 2.918,-0.063 0.949,-0.015 1.914,-0.054 2.867,-0.078 0.984,-0.023 1.992,0 2.98,0.008 0.946,0.008 1.926,0.094 2.852,0.082 C 39.27,59.965 37.43,59.625 36.91,59.547 35,59.254 32.555,59.316 30.645,59.609 30.02,59.707 28.336,59.992 27.93,60.258 m 27.644,-1.063 c -0.379,-1.562 -0.761,-3.132 -1.14,-4.699 -1.438,-0.312 -3.477,-0.621 -5.926,-0.555 -2.762,0.075 -4.988,0.59 -6.477,1.043 -1.488,-0.453 -3.715,-0.968 -6.476,-1.043 -2.45,-0.066 -4.489,0.243 -5.926,0.555 -0.469,1.59 -0.938,3.184 -1.406,4.774 1.004,-0.278 2.101,-0.52 3.293,-0.688 4.226,-0.602 7.882,-0.059 10.515,0.617 2.672,-0.683 6.321,-1.215 10.52,-0.617 1.082,0.152 2.094,0.367 3.023,0.613 m 1.586,1.086 c -1.176,-0.429 -2.539,-0.824 -4.07,-1.086 -4.652,-0.793 -8.594,0.024 -11.059,0.782 -2.465,-0.758 -6.406,-1.575 -11.058,-0.782 -1.532,0.262 -2.895,0.657 -4.071,1.086 l 2.09,-6.269 c 1.512,-0.399 3.656,-0.785 6.231,-0.703 2.902,0.093 5.246,0.75 6.808,1.32 1.567,-0.57 3.907,-1.227 6.809,-1.32 2.574,-0.082 4.719,0.304 6.23,0.703 z m -13.594,-0.746 0.18,1.215 -3.789,-0.004 0.176,-1.211 z"
           style="fill:#f3eb00;fill-opacity:1;fill-rule:nonzero;stroke:none"
           id="path4108" /><path
           d="m 35.82,38.949 c 0,10.414 2.782,18.86 6.211,18.86 3.43,0 6.211,-8.446 6.211,-18.86 0,-10.414 -2.781,-18.855 -6.211,-18.855 -3.429,0 -6.211,8.441 -6.211,18.855 z"
           style="fill:none;stroke:#f3eb00;stroke-width:0.887;stroke-linecap:butt;stroke-linejoin:miter;stroke-miterlimit:10;stroke-dasharray:4.696, 0.991;stroke-dashoffset:0;stroke-opacity:1"
           id="path4110" /><path
           d="m 35.227,50.434 c 9.019,5.207 17.722,7.019 19.437,4.05 1.715,-2.972 -4.203,-9.601 -13.223,-14.808 -9.019,-5.207 -17.722,-7.02 -19.437,-4.051 -1.715,2.973 4.207,9.602 13.223,14.809 z"
           style="fill:none;stroke:#f3eb00;stroke-width:0.887;stroke-linecap:butt;stroke-linejoin:miter;stroke-miterlimit:10;stroke-dasharray:4.696, 0.991;stroke-dashoffset:0;stroke-opacity:1"
           id="path4112" /><path
           d="m 42.621,39.676 c -9.016,5.207 -14.937,11.836 -13.223,14.808 1.715,2.969 10.418,1.157 19.438,-4.05 9.019,-5.207 14.937,-11.836 13.223,-14.809 -1.715,-2.969 -10.418,-1.156 -19.438,4.051 z"
           style="fill:none;stroke:#f3eb00;stroke-width:0.887;stroke-linecap:butt;stroke-linejoin:miter;stroke-miterlimit:10;stroke-dasharray:4.696, 0.991;stroke-dashoffset:0;stroke-opacity:1"
           id="path4114" /></g><g
         id="g4116"><g
           id="g4118"
           clip-path="url(#clipPath4122)"><g
             id="g4124"><g
               id="g4126" /><g
               id="g4318"><g
                 clip-path="url(#clipPath4130)"
                 id="g4316"><g
                   id="g4290" /><g
                   id="g4314"><g
                     clip-path="url(#clipPath4134)"
                     id="g4312"><g
                       clip-path="url(#clipPath4138)"
                       id="g4310"><g
                         id="g4308"><g
                           id="g4292" /><g
                           id="g4306"><g
                             clip-path="url(#clipPath4142)"
                             id="g4304"><g
                               id="g4302"><g
                                 id="g4300"><g
                                   clip-path="url(#clipPath4146)"
                                   id="g4298"><g
                                   id="g4296"><path
                                   d="M 24.805,23.445 H 59.258 V 56.211 H 24.805 Z"
                                   style="fill:url(#radialGradient4288);stroke:none"
                                   id="path4294" /></g></g></g></g></g></g></g></g></g></g></g></g></g><path
             d="M 42.031,25.816 V 41.555 L 38.496,36.691 Z"
             style="fill:#cd281f;fill-opacity:1;fill-rule:nonzero;stroke:none"
             id="path4320" /><path
             d="m 57.004,36.691 -14.973,4.864 3.535,-4.864 z"
             style="fill:#cd281f;fill-opacity:1;fill-rule:nonzero;stroke:none"
             id="path4322" /><path
             d="M 51.285,54.289 42.031,47.566 V 41.555 Z"
             style="fill:#cd281f;fill-opacity:1;fill-rule:nonzero;stroke:none"
             id="path4324" /><path
             d="M 42.031,41.555 32.781,54.289 36.313,43.41 Z"
             style="fill:#cd281f;fill-opacity:1;fill-rule:nonzero;stroke:none"
             id="path4326" /><path
             d="m 42.031,41.555 -5.718,1.855 -9.25,-6.719 z"
             style="fill:#cd281f;fill-opacity:1;fill-rule:nonzero;stroke:none"
             id="path4328" /><path
             d="m 45.566,36.691 -3.535,4.864 V 25.813 Z"
             style="fill:#b0271f;fill-opacity:1;fill-rule:nonzero;stroke:none"
             id="path4330" /><path
             d="M 57.004,36.691 47.75,43.414 42.031,41.555 Z"
             style="fill:#b0271f;fill-opacity:1;fill-rule:nonzero;stroke:none"
             id="path4332" /><path
             d="M 42.031,41.555 27.063,36.691 h 11.433 z"
             style="fill:#b0271f;fill-opacity:1;fill-rule:nonzero;stroke:none"
             id="path4334" /><path
             d="M 51.285,54.289 42.031,41.555 47.75,43.41 Z"
             style="fill:#b0271f;fill-opacity:1;fill-rule:nonzero;stroke:none"
             id="path4336" /><path
             d="m 42.031,41.555 v 6.015 l -9.25,6.719 z"
             style="fill:#b0271f;fill-opacity:1;fill-rule:nonzero;stroke:none"
             id="path4338" /><path
             d="m 40.277,39.523 c -0.132,0 -0.265,-0.003 -0.398,0 -0.051,0.004 -0.098,0.016 -0.149,0.024 -0.058,0.012 -0.117,0.082 -0.113,0.144 0.004,0.082 0.008,0.164 0.02,0.247 0.07,0.472 0.011,0.929 -0.137,1.378 -0.074,0.219 -0.16,0.434 -0.242,0.653 -0.028,0.078 -0.063,0.156 -0.082,0.234 -0.008,0.024 0.015,0.059 0.031,0.086 0.004,0.008 0.031,0.008 0.047,0.004 0.031,-0.008 0.062,-0.02 0.09,-0.039 0.898,-0.625 1.379,-1.504 1.539,-2.574 0.008,-0.055 -0.055,-0.141 -0.11,-0.145 -0.164,-0.012 -0.328,-0.023 -0.496,-0.031 0,0.004 0,0.012 0,0.019 m 3.75,5.457 c 0.133,0 0.266,-0.003 0.399,-0.007 0.109,0 0.203,-0.047 0.262,-0.129 0.148,-0.199 0.292,-0.403 0.425,-0.614 0.172,-0.265 0.153,-0.347 -0.156,-0.484 -0.152,-0.07 -0.297,-0.148 -0.449,-0.219 -0.067,-0.027 -0.141,-0.007 -0.184,0.039 -0.094,0.098 -0.172,0.204 -0.261,0.305 -0.067,0.082 -0.157,0.129 -0.258,0.133 -0.153,0.008 -0.301,0.008 -0.453,0.008 -1.399,0.008 -2.801,0.015 -4.204,0.019 -0.148,0.004 -0.296,0.016 -0.445,0.024 -0.043,0.004 -0.078,0.078 -0.058,0.121 0.105,0.226 0.21,0.449 0.324,0.676 0.039,0.078 0.113,0.117 0.203,0.121 0.117,0.004 0.234,0.007 0.351,0.007 z m -2.679,-7.144 c 0.515,0 1.031,-0.008 1.55,0.004 0.274,0.004 0.532,-0.031 0.747,-0.215 0.039,-0.035 0.082,-0.066 0.128,-0.078 0.047,-0.008 0.11,-0.016 0.145,0.008 0.168,0.109 0.328,0.23 0.488,0.347 0.121,0.09 0.137,0.157 0.067,0.301 -0.328,0.652 -0.313,1.317 -0.098,1.996 0.129,0.414 0.336,0.793 0.574,1.16 0.082,0.125 0.168,0.246 0.25,0.375 0.031,0.047 0.008,0.137 -0.043,0.176 -0.011,0.008 -0.023,0.024 -0.039,0.031 -0.258,0.153 -0.515,0.305 -0.777,0.454 -0.102,0.058 -0.18,0.035 -0.262,-0.059 -0.195,-0.231 -0.348,-0.488 -0.484,-0.758 -0.239,-0.48 -0.383,-0.992 -0.496,-1.515 -0.075,-0.344 -0.121,-0.688 -0.114,-1.04 0,-0.085 -0.004,-0.171 -0.023,-0.25 -0.012,-0.039 -0.059,-0.093 -0.094,-0.097 -0.113,-0.024 -0.23,-0.031 -0.347,-0.031 -0.786,-0.004 -1.567,0 -2.352,0.003 -0.133,0 -0.266,-0.007 -0.398,-0.011 -0.071,-0.004 -0.137,-0.035 -0.168,-0.094 -0.106,-0.188 -0.204,-0.379 -0.243,-0.594 -0.004,-0.027 0.024,-0.074 0.043,-0.078 0.078,-0.019 0.161,-0.035 0.243,-0.035 0.566,0 1.136,0 1.703,0 z"
             style="fill:#f3eb00;fill-opacity:1;fill-rule:nonzero;stroke:none"
             id="path4340" /></g></g><g
         id="g4342"><path
           d="m 31.871,69.406 c -0.023,-0.011 -1.047,-0.441 -1.223,-0.441 -0.128,0.543 0.161,0.031 0.098,0.543 l -1.117,2.836 c -0.512,1.273 -0.356,0.304 -0.676,0.871 0.078,0.176 0.051,0.121 0.305,0.211 0.133,0.047 0.238,0.086 0.375,0.133 l 0.535,0.187 c 0.008,0.004 0.027,0.004 0.035,0.004 0.008,0 0.027,-0.004 0.035,-0.004 l 0.059,-0.016 c 0.281,-0.433 -0.18,-0.007 -0.074,-0.515 0.019,-0.106 0.16,-0.414 0.218,-0.567 0.149,-0.371 0.289,-0.714 0.438,-1.082 0.16,-0.402 0.289,-0.734 0.449,-1.125 0.07,-0.168 0.145,-0.398 0.231,-0.554 0.211,-0.403 0.238,-0.032 0.425,-0.309 -0.027,-0.172 0.012,-0.082 -0.113,-0.172 m -10.926,-6.48 c 0.422,-0.453 1.078,-0.172 0.555,-0.633 -0.371,-0.328 -0.555,-0.633 -0.84,-0.723 -0.133,0.328 0.078,0.289 -0.172,0.563 -0.14,0.152 -0.265,0.273 -0.414,0.43 -0.289,0.3 -0.539,0.558 -0.828,0.859 -0.277,0.289 -0.57,0.547 -0.848,0.84 -0.902,0.945 -0.539,0.109 -0.972,0.578 0.117,0.238 0.355,0.344 0.535,0.539 0.133,0.144 0.383,0.543 0.562,0.359 0.27,-0.277 -0.105,-0.039 0.051,-0.394 l 0.778,-0.805 c 0.183,-0.195 0.359,-0.328 0.546,-0.519 0.188,-0.192 0.336,-0.356 0.524,-0.547 0.187,-0.2 0.336,-0.348 0.523,-0.547 M 8.168,45.258 c -0.07,0.23 0.008,1.113 0.055,1.375 0.101,0.043 0.093,0.101 0.25,0 0.097,-0.067 0.019,-0.047 0.121,-0.16 0.187,-0.215 1.133,-0.196 1.57,-0.219 0.711,-0.035 1.629,-0.152 2.305,-0.125 0.14,0.16 0.105,0.207 0.379,0.199 0.05,-0.18 0.004,-0.875 -0.024,-1.117 L 12.75,44.922 c -0.445,0.066 0.012,0.141 -0.359,0.277 -0.039,0.016 -0.465,0.039 -0.543,0.043 L 8.586,45.469 C 8.352,45.285 8.555,45.227 8.168,45.258 M 75.27,47.98 c -0.09,-0.05 -1.305,-0.445 -1.497,-0.347 0.016,0.383 0.176,0.125 0.707,0.648 0.25,0.246 0.418,0.492 0.231,0.922 -0.352,0.078 -2.453,-0.504 -2.945,-0.625 -0.254,-0.066 -0.477,-0.105 -0.727,-0.176 -0.609,-0.175 -0.016,-0.531 -0.453,-0.418 -0.094,0.028 -0.09,-0.007 -0.152,0.321 l -0.188,1.062 c 0.395,0.028 0.074,-0.187 0.531,-0.156 l 1.793,0.422 c 0.383,0.086 0.778,0.183 1.18,0.273 1.285,0.293 0.332,0.426 0.918,0.485 0.129,-0.161 0.586,-2.106 0.602,-2.411 M 22.824,63.691 c 0.063,-0.261 -0.246,-0.402 -0.418,-0.562 -0.304,-0.281 -0.398,-0.445 -0.593,-0.461 -0.168,0.301 0.066,0.27 -0.122,0.605 -0.336,0.602 -2.105,3.438 -2.183,3.723 l 0.269,0.184 C 20,67.098 20.621,66.637 20.84,66.477 l 2.531,-1.743 c 0.399,-0.136 0.356,0.129 0.551,-0.164 -0.067,-0.129 -0.555,-0.593 -0.711,-0.656 -0.383,0.27 -0.023,0.07 -0.066,0.555 -0.297,0.219 -0.645,0.449 -0.95,0.664 -0.25,0.18 -0.672,0.523 -0.972,0.637 l 1.191,-2.059 c 0.285,0.004 0.207,0.078 0.41,-0.02 m 47.051,-4.402 c -0.133,0.223 0.035,0.266 0.199,0.371 0.524,0.328 0.66,1.016 0.168,1.16 -0.472,0.145 -1.519,-0.523 -1.847,-0.718 -0.434,-0.258 -1.274,-0.797 -1.512,-1.133 -0.375,-0.516 0.215,-0.571 0.637,-0.516 0.449,0.055 0.746,0.317 0.937,-0.027 -0.152,-0.137 -1.168,-0.762 -1.355,-0.797 -0.223,0.273 -0.079,0.129 -0.141,0.519 -0.93,0.329 -0.5,1.418 -0.031,1.957 0.933,1.063 3.14,2.141 3.836,0.79 0.187,-0.368 0.109,-0.805 -0.102,-1.094 -0.133,-0.188 -0.203,-0.215 -0.379,-0.356 -0.078,-0.062 -0.121,-0.113 -0.191,-0.148 -0.059,-0.031 -0.047,-0.027 -0.106,-0.031 -0.117,-0.012 -0.05,-0.008 -0.113,0.023 M 70.84,40.504 c -0.008,0.055 0,0.16 0.004,0.219 0.027,0.55 -0.074,1.164 0.211,1.117 0.3,-0.051 -0.082,-0.199 0.504,-0.399 1.242,-0.421 2.367,-0.937 3.636,-0.718 0.153,0.293 -0.058,0.316 0.317,0.281 0.117,-0.188 0.051,-1.262 -0.004,-1.504 -0.602,-0.094 -0.012,0.195 -0.465,0.297 -0.422,0.098 -1.648,-0.027 -2.016,-0.125 -0.402,-0.109 -0.789,-0.215 -1.199,-0.324 -0.933,-0.246 -0.371,-0.485 -0.988,-0.496 l 0.058,1.023 c 0.547,0.016 -0.148,-0.539 1.04,-0.184 0.289,0.086 0.859,0.211 1.093,0.352 -0.359,0.137 -1.429,0.539 -1.781,0.555 -0.184,-0.258 -0.008,-0.297 -0.352,-0.27 -0.089,0.137 -0.031,-0.023 -0.058,0.176 M 9.285,41.48 C 9.16,41.527 8.762,41.625 8.633,41.637 8.074,41.699 8.543,41.441 8.082,41.402 7.969,41.59 8,42.645 8.059,42.832 c 0.394,0.027 0.117,-0.098 0.433,-0.285 0.172,-0.102 1.559,-0.391 1.809,-0.445 0.73,-0.161 1.722,-0.348 2.41,-0.563 0.141,-0.527 -0.043,-0.461 -0.898,-0.664 L 8.52,40.063 c -0.387,-0.2 0.011,-0.27 -0.5,-0.313 0,0.313 -0.063,0.813 0.062,1.047 0.496,-0.129 -0.148,-0.508 1.219,-0.207 z m 0.356,-0.074 0.011,-0.718 c 0.379,0.074 1.196,0.214 1.469,0.382 z m 26.172,29.121 c -0.321,-0.074 -0.934,-0.269 -1.153,-0.238 -0.047,0.434 0.098,0.141 0.215,0.445 l 0.113,2.067 c 0.039,0.543 -0.172,1.679 -0.32,1.828 C 34.457,74.844 34.395,74.535 34.34,75 l 1.437,0.344 0.071,-0.199 c -0.121,-0.207 -0.305,-0.051 -0.211,-0.551 0.265,-1.414 0.484,-1.512 1.203,-2.746 0.555,-0.95 0.558,-0.403 0.73,-0.809 -0.132,-0.156 -0.851,-0.316 -1.027,-0.336 -0.016,0.477 0.027,0.145 0.234,0.449 -0.015,0.246 -0.73,1.438 -0.894,1.668 -0.051,-0.39 -0.149,-1.55 -0.078,-1.894 0.304,-0.149 0.238,0.117 0.363,-0.223 -0.098,-0.16 -0.145,-0.129 -0.355,-0.176 m 24.121,0.446 c 0.171,-0.137 0.078,-0.012 0.171,-0.211 0.215,-0.461 0.184,-0.16 0.711,-0.41 0.887,-0.422 0.618,-1.297 0.133,-1.907 -0.711,-0.894 -3.117,-0.472 -2.972,-1.441 0.109,-0.738 1.046,-0.121 1.371,0.121 0.265,0.199 0.191,0.168 0.492,0.059 -0.074,-0.223 -0.735,-1.239 -0.922,-1.313 -0.23,0.207 -0.121,0.246 -0.313,0.414 -0.507,0.145 -0.652,0.051 -0.894,0.512 -0.191,0.363 -0.16,0.754 0.035,1.086 0.625,1.078 2.063,0.711 2.926,1.234 0.285,0.176 0.5,0.567 0.191,0.887 -0.273,0.277 -0.769,0.086 -1.047,-0.086 -0.621,-0.383 -0.464,-0.457 -0.847,-0.309 0.07,0.157 0.754,1.243 0.965,1.364 M 8.563,44.188 c 0.183,-0.083 1.406,-0.129 1.652,-0.141 0.711,-0.043 1.551,-0.129 2.246,-0.117 -0.176,0.453 -0.809,0.539 -1.172,0.625 -0.437,0.101 -0.133,0.285 -0.133,0.285 0.008,0.004 0.028,0.012 0.043,0.012 0.211,0.046 1.313,-0.071 1.551,-0.086 0.035,-0.317 -0.031,-2.297 -0.117,-2.5 -0.047,-0.059 -0.153,-0.059 -0.219,-0.063 l -0.621,0.031 c -0.266,0.004 -0.613,-0.023 -0.844,0.067 0.004,0.293 -0.004,0.246 0.289,0.277 0.215,0.024 0.262,0.02 0.481,0.078 0.312,0.082 0.57,0.133 0.676,0.414 -0.735,0.008 -1.551,0.082 -2.29,0.133 -2.726,0.18 -1.359,-0.191 -2.062,-0.207 -0.004,0.274 0.027,0.555 0.039,0.824 0.039,0.676 -0.043,0.586 0.168,0.692 0.25,-0.129 0.027,-0.199 0.313,-0.324 m 17.996,28.058 c 0.468,0.242 0.375,-0.246 0.812,0.254 0.707,0.805 1.668,0.309 1.93,-0.656 0.195,-0.735 -0.11,-1.254 -0.313,-1.86 -0.25,-0.75 -0.55,-1.492 0.434,-1.429 0.172,0.261 0.238,0.41 0.219,0.855 -0.008,0.168 -0.067,0.399 -0.067,0.524 -0.004,0.238 0,0.156 0.215,0.277 0.102,-0.117 0.664,-1.152 0.656,-1.359 l -0.023,-0.09 c -0.34,-0.114 -0.258,0.136 -0.52,-0.082 -0.101,-0.086 -0.203,-0.231 -0.351,-0.325 -0.34,-0.214 -0.727,-0.132 -1.035,0.063 -1.496,0.945 0.726,3.5 -0.2,4.078 -0.363,0.227 -0.703,-0.101 -0.789,-0.433 -0.105,-0.391 -0.062,-0.594 -0.027,-0.95 L 27.496,70.84 27.211,70.77 c -0.129,0.246 -0.652,1.285 -0.652,1.476 m 37.23,-9.871 c 0.707,0.012 0.941,0.426 1.445,0.609 l 0.141,-0.164 -1.227,-1.179 -1.828,1.765 c 0.164,0.207 0.969,1.114 1.192,1.196 l 0.133,-0.082 c -0.071,-0.329 -0.704,-1.016 -0.508,-1.473 0.312,0.172 0.523,0.535 0.781,0.805 0.137,0.144 0.27,0.226 0.406,0.375 l 1.149,1.211 c 0.82,0.878 -0.016,0.574 0.488,0.921 0.129,-0.093 0.215,-0.234 0.348,-0.359 0.129,-0.125 0.218,-0.207 0.347,-0.328 0.754,-0.715 0.055,-0.406 -0.168,-0.418 z m -32.223,8.898 c 0.289,0.036 0.243,0.086 0.36,-0.175 0.164,-0.371 0.426,-0.903 0.859,-1.02 l -1.078,3.899 c -0.144,0.043 -0.465,-0.043 -0.332,0.234 0.063,0.133 1.289,0.402 1.441,0.422 0.11,-0.477 -0.007,-0.133 -0.16,-0.442 -0.09,-0.179 0.313,-1.429 0.371,-1.656 0.098,-0.39 0.2,-0.742 0.297,-1.109 0.051,-0.196 0.106,-0.395 0.153,-0.574 l 0.121,-0.399 c 0.082,-0.156 0,-0.023 0.086,-0.113 0.39,1.098 0.074,1.047 0.195,1.515 l 0.215,0.055 c 0.105,-0.187 0.394,-1.406 0.402,-1.644 l -2.453,-0.641 z m 19.258,-0.957 c 1.09,-0.293 0.965,0.536 1.461,0.825 l 0.227,-0.067 -0.555,-1.39 -2.144,0.625 c -0.215,0.074 -0.153,0.004 -0.231,0.168 0.125,0.425 0.219,-0.043 0.391,0.398 l 1.105,3.5 c 0.016,0.402 -0.332,0.035 -0.164,0.441 0.18,0.059 0.383,-0.05 0.727,-0.144 0.23,-0.07 0.55,-0.102 0.675,-0.258 L 52.285,74.219 51.93,74.156 c -0.153,-0.468 -0.442,-1.238 -0.539,-1.758 0.789,0.082 0.617,0.766 0.949,0.68 0.066,-0.098 0.101,0.063 0.035,-0.265 l -0.543,-1.715 -0.246,0.086 c -0.016,0.453 0.059,0.671 -0.273,0.902 -0.125,-0.211 -0.528,-1.527 -0.489,-1.77 m -33,-12.242 c -0.383,0.262 0.051,0.258 -0.289,0.598 -0.113,0.109 -0.398,0.293 -0.551,0.406 -0.418,0.309 -1.898,1.469 -2.254,1.574 -0.527,0.157 -1.015,-0.476 -0.574,-0.914 l 2.184,-1.644 c 0.125,-0.094 0.437,-0.364 0.555,-0.403 0.41,-0.148 0.992,0.434 0.117,-0.757 -0.414,-0.563 -0.203,-0.493 -0.492,-0.45 -0.196,0.297 0.156,0.282 -0.332,0.614 -0.204,0.136 -0.352,0.25 -0.52,0.382 -1.363,1.063 -2.957,1.727 -1.988,2.958 0.863,1.097 1.617,0.312 2.383,-0.254 0.355,-0.266 0.707,-0.524 1.07,-0.789 0.816,-0.606 0.652,-0.575 1.121,-0.344 l 0.156,-0.168 c -0.074,-0.188 -0.445,-0.664 -0.586,-0.809 m 24.082,15.301 c 0.004,-0.383 0.004,-0.77 0,-1.156 0,-0.403 -0.117,-0.801 0.375,-0.692 0.414,0.098 0.453,0.243 0.602,0.59 0.07,0.168 0.101,0.313 0.16,0.461 0.078,0.203 0.082,0.207 0.34,0.168 l -0.125,-1.527 -2.492,0.058 c -0.051,0.477 0,0.133 0.254,0.43 l 0.031,3.824 c -0.031,0.098 -0.196,0.067 -0.238,0.289 -0.02,0.102 -0.004,0.067 0.011,0.153 0.254,-0.004 1.246,0.019 1.465,-0.098 0.008,-0.52 -0.141,-0.039 -0.301,-0.375 l -0.054,-1.797 c 0.742,0.176 0.214,0.942 0.82,0.91 0.051,-0.324 0.016,-0.722 0,-1.05 -0.016,-0.403 0.055,-1.004 -0.145,-1.036 -0.289,0.051 -0.109,-0.097 -0.203,0.227 -0.058,0.207 -0.09,0.621 -0.5,0.621 m 17.332,-2.012 c -0.105,-0.297 -0.414,-0.742 -0.593,-1.058 -0.2,-0.36 -0.387,-0.672 -0.594,-1.039 -0.196,-0.34 -0.395,-0.68 -0.598,-1.036 -0.562,-0.968 -0.074,-0.652 -0.191,-1.101 -0.106,-0.004 -0.922,0.359 -0.899,0.5 0.051,0.344 0.34,-0.074 0.633,0.383 l 1.012,1.847 c -0.774,-0.504 -1.774,-1.379 -2.461,-1.812 -0.211,0.051 -0.879,0.394 -0.949,0.57 l 0.047,0.149 0.402,-0.032 c 0.441,0.649 1.187,2.063 1.664,2.883 0.523,0.899 -0.242,0.653 0.184,1 0.187,-0.086 0.289,-0.156 0.464,-0.269 0.758,-0.489 0.149,-0.332 -0.117,-0.473 -0.199,-0.105 -1.453,-2.516 -1.523,-2.684 l 2.418,1.789 c 0.234,0.172 0.531,0.426 0.789,0.579 z M 70.844,42.016 c -0.098,0.277 0.023,0.238 0.078,0.429 0.066,0.227 -0.074,0.278 -0.125,0.442 -0.242,0.801 0.988,1.468 2.078,1.586 0.871,0.093 2.395,-0.016 2.711,-0.969 0.16,-0.492 -0.055,-0.668 -0.199,-0.977 0.14,-0.191 0.312,-0.164 0.195,-0.464 -0.473,-0.168 -1.629,0.058 -1.937,-0.09 -0.282,-0.129 0.031,-0.227 -0.426,-0.164 l -0.047,1.257 c 0.519,0.098 0.101,-0.062 0.488,-0.273 0.07,-0.031 1.629,-0.148 1.672,0.352 -0.152,0.621 -1.672,0.418 -2.242,0.386 -0.445,-0.027 -0.82,-0.004 -1.258,-0.082 -0.695,-0.129 -0.766,-0.172 -0.758,-0.547 0.211,-0.172 0.328,-0.269 0.61,-0.379 0.421,-0.164 0.714,-0.082 0.699,-0.335 -0.067,-0.168 0.031,-0.047 -0.125,-0.125 z M 48.215,71.039 c 0.262,-0.355 0.765,-0.019 0.902,0.133 0.426,0.465 0.102,0.687 0.633,0.637 l -0.293,-1.332 c -0.359,-0.036 -1.992,0.359 -2.461,0.441 0.059,0.434 0.129,0.086 0.332,0.414 0.094,0.152 0.324,1.5 0.375,1.766 0.074,0.394 0.145,0.808 0.227,1.23 0.258,1.395 -0.227,0.551 -0.059,1.11 l 0.094,0.023 c 0.015,0.004 0.031,0.008 0.047,0.008 0.015,0 0.031,0 0.051,0 l 1.078,-0.203 c 0.414,-0.082 0.82,-0.164 1.242,-0.239 0,-0.261 -0.09,-0.566 -0.141,-0.82 -0.023,-0.125 -0.051,-0.254 -0.074,-0.379 -0.07,-0.344 -0.078,-0.269 -0.133,-0.328 -0.246,0.086 -0.176,0.152 -0.219,0.461 -0.07,0.457 -0.273,1.047 -0.828,0.992 -0.172,-0.273 -0.359,-1.465 -0.406,-1.898 0.297,0.035 0.418,0.183 0.523,0.379 0.208,0.382 0.016,0.441 0.438,0.355 -0.012,-0.32 -0.141,-0.762 -0.211,-1.094 -0.199,-0.925 -0.078,-0.886 -0.422,-0.879 -0.094,0.196 0.11,0.727 -0.406,0.899 -0.098,-0.309 -0.285,-1.317 -0.289,-1.676 M 25.203,67.355 c 0.137,-0.093 0.801,-0.964 0.867,-1.16 -0.566,-0.355 -1.621,-1.246 -2.019,-1.461 -0.344,0.289 0.082,0.125 -0.106,0.571 l -1.8,2.422 c -0.063,0.082 -0.317,0.449 -0.364,0.48 -0.324,0.242 -0.195,-0.129 -0.531,0.184 l 2.016,1.582 c 0.183,-0.118 0.371,-0.395 0.531,-0.594 0.18,-0.234 0.492,-0.516 0.367,-0.652 -0.137,-0.145 -0.434,0.136 -0.812,0.32 -0.297,0.141 -0.637,0.187 -0.926,-0.031 -0.129,-0.207 0.332,-0.7 0.496,-0.907 0.129,-0.156 0.465,-0.636 0.644,-0.738 0.184,0.66 -0.152,0.797 -0.101,1.094 0.289,0.094 0.238,0.004 0.437,-0.274 l 0.926,-1.265 -0.152,-0.145 c -0.352,0.145 -0.352,0.481 -0.961,0.321 0.09,-0.204 0.828,-1.258 1.125,-1.387 0.246,0.125 0.48,0.351 0.433,0.754 -0.078,0.687 -0.441,0.625 -0.07,0.886 m 35.168,-2.05 c 0.488,-0.879 1.289,0.207 1.668,0.074 0.024,-0.203 -0.644,-1.016 -0.812,-1.168 l -2.012,1.543 c 0.305,0.344 0.09,0.133 0.371,0.18 0.172,0.027 0.238,0.14 0.336,0.277 l 1.683,2.199 c 0.098,0.137 0.196,0.25 0.297,0.383 0.305,0.398 -0.304,1.023 0.762,0.195 l 1.414,-1.086 c -0.176,-0.41 -0.672,-0.851 -0.855,-1.273 -0.293,0.105 -0.262,0.125 -0.16,0.43 0.164,0.484 0.382,1.332 -0.344,1.402 -0.258,-0.422 -0.992,-1.281 -1.098,-1.531 0.953,-0.125 0.508,0.574 1.188,0.304 -0.11,-0.226 -1.145,-1.523 -1.301,-1.629 l -0.16,0.102 c 0.117,0.508 0.328,0.34 0.097,0.996 -0.16,-0.105 -1.011,-1.176 -1.074,-1.398 M 19.68,60.695 c 0.078,0.36 0.105,0.344 -0.149,0.594 l -1.496,1.262 1.254,-2.649 c -0.164,-0.281 -0.34,-0.41 -0.547,-0.652 -0.078,-0.094 -0.164,-0.285 -0.316,-0.141 -0.164,0.153 0.004,0 0.051,0.411 -0.696,0.687 -1.551,1.332 -2.075,1.843 -1.214,1.192 -0.976,0.266 -1.379,0.703 0.055,0.172 0.563,0.731 0.719,0.805 l 0.141,-0.117 c -0.004,-0.281 -0.262,-0.289 0.316,-0.805 L 17.5,60.836 c 0.168,-0.145 0.488,-0.371 0.637,-0.504 l -1.688,3.508 c 0.078,0.133 0.16,0.219 0.293,0.289 0.25,-0.141 0.848,-0.723 1.094,-0.938 0.348,-0.308 0.75,-0.605 1.102,-0.925 l 0.812,-0.703 c 0.137,-0.129 0.133,-0.168 0.359,-0.145 0.168,0.016 0.258,0.176 0.371,-0.023 0.083,-0.149 -0.015,-0.18 -0.132,-0.313 -0.137,-0.156 -0.325,-0.418 -0.465,-0.547 z m 52.543,-5.207 c 1.199,0.442 0.285,0.43 0.867,0.633 0.113,-0.117 0.16,-0.316 0.226,-0.492 0.028,-0.078 0.071,-0.176 0.094,-0.254 0.082,-0.285 0.07,-0.109 0,-0.176 -0.234,-0.234 -0.168,-0.011 -0.43,0.11 -0.05,0.007 -2.566,-0.766 -2.792,-1.004 l 3.187,-0.242 c 0.445,-0.028 0.57,0.007 0.668,-0.176 0.027,-0.051 0.047,-0.176 0.059,-0.239 L 70.035,52.16 C 70.023,52.098 70.016,51.98 70,51.918 c -0.043,-0.203 0.063,-0.063 -0.078,-0.195 -0.25,0.007 -0.227,0.179 -0.324,0.414 -0.067,0.168 -0.149,0.343 -0.2,0.511 0.391,0.317 0.165,-0.109 0.586,-0.089 0.207,0.011 1.84,0.55 2.051,0.718 -0.504,0.106 -2.691,0.145 -2.914,0.274 -0.156,0.113 -0.375,0.883 -0.394,1.047 0.437,0.199 0.14,-0.246 0.617,-0.172 z m -6.848,5.262 c 0.094,-0.277 0.395,-0.473 0.773,-0.422 0.575,0.074 0.606,0.406 0.907,0.172 -0.004,-0.199 -0.016,-0.129 -0.196,-0.266 l -0.808,-0.703 c -0.211,0.18 -1.61,1.766 -1.653,1.926 0.372,0.359 0.145,-0.164 0.536,0.133 0.171,0.129 0.328,0.269 0.457,0.39 l 1.855,1.579 c 1.024,0.851 0.125,0.539 0.617,0.941 0.106,-0.047 0.332,-0.301 0.446,-0.437 l 1.234,-1.395 c -0.117,-0.254 -0.957,-1.059 -1.148,-1.105 l -0.137,0.132 c 0.097,0.434 0.832,1.078 0.285,1.688 -0.273,0.019 -0.344,-0.113 -0.496,-0.235 l -1.129,-0.992 c 0.531,-0.23 0.703,-0.031 1.051,0.203 0.074,-0.086 0.09,-0.109 0.152,-0.207 -0.207,-0.234 -1.328,-1.25 -1.57,-1.355 l -0.125,0.199 c 0.191,0.309 0.398,0.383 0.304,0.938 -0.222,-0.098 -0.828,-0.672 -1.054,-0.856 -0.078,-0.062 -0.09,-0.066 -0.176,-0.16 -0.141,-0.156 -0.047,-0.023 -0.125,-0.168 m -12.031,8.656 c 0.281,-0.25 0.668,-0.211 0.949,0.016 0.426,0.336 0.324,0.598 0.648,0.496 0.071,-0.203 -0.355,-1.063 -0.519,-1.281 l -2.055,0.851 c -0.293,0.141 -0.156,0.035 -0.211,0.2 0.207,0.32 0.25,-0.09 0.453,0.351 l 0.684,1.625 c 0.156,0.375 0.305,0.723 0.469,1.102 0.054,0.117 0.218,0.468 0.234,0.554 0.067,0.356 -0.258,0.176 -0.023,0.528 0.078,0.066 2.23,-0.926 2.332,-1.008 -0.051,-0.235 -0.188,-0.504 -0.289,-0.75 -0.282,-0.684 -0.141,-0.652 -0.469,-0.574 -0.164,0.281 0.297,1.543 -0.641,1.605 -0.168,-0.254 -0.64,-1.383 -0.75,-1.746 0.5,-0.047 0.688,0.418 0.817,0.617 l 0.254,-0.097 c -0.039,-0.278 -0.289,-0.774 -0.403,-1.032 -0.222,-0.504 -0.308,-0.992 -0.57,-0.832 -0.18,0.246 0.176,0.563 -0.227,1.008 -0.144,-0.125 -0.293,-0.582 -0.382,-0.797 -0.11,-0.262 -0.27,-0.551 -0.301,-0.836 M 12.551,49.523 c -0.176,0.098 -0.563,0.536 -0.77,0.7 -0.183,0.144 -0.226,0.203 -0.41,0.375 l -1.18,1.066 c -0.324,0.285 -0.57,0.34 -0.48,0.699 0.066,0.27 0.035,0.149 0.156,0.157 l 3.434,-1.118 c 1.258,-0.414 0.336,0.223 1.078,0.004 -0.031,-0.226 -0.098,-0.351 -0.168,-0.558 -0.09,-0.274 -0.047,-0.399 -0.336,-0.387 -0.125,0.148 -0.02,0.168 -0.125,0.328 -0.129,0.191 -1.891,0.738 -2.09,0.785 l 1.645,-1.519 c 0.129,-0.11 0.418,-0.383 0.496,-0.5 L 13.422,48.5 c -0.356,0.098 -0.141,0.105 -0.277,0.434 -0.25,0.16 -1.633,0.57 -2.012,0.691 -0.356,0.117 -0.668,0.223 -1.012,0.34 -0.953,0.316 -0.57,-0.094 -1.019,-0.055 -0.02,0.192 0.093,0.633 0.164,0.824 0.242,0.653 0.382,-0.226 0.382,-0.23 z m 57.23,1.497 c 0.043,0.406 0.528,0.929 0.805,1.156 1.039,0.84 4.129,1 3.902,-0.637 -0.265,-1.91 -4.929,-2.559 -4.707,-0.519 m 1.317,-0.473 c 0.629,0.117 2.945,0.637 3.074,1.156 0.187,0.766 -1.817,0.145 -2.172,0.063 -0.684,-0.157 -1.52,-0.422 -1.937,-0.844 0.003,-0.305 0.023,-0.375 0.328,-0.422 0.238,-0.035 0.472,0.004 0.707,0.047 M 13.156,47.98 c 0.254,-0.593 -0.222,-1.074 -0.605,-1.261 -1.317,-0.641 -3.602,0.199 -3.965,1.379 -0.594,1.953 3.676,1.992 4.57,-0.118 m -0.238,-0.585 c 0.02,0.664 -1.176,0.882 -1.789,1.046 -0.379,0.106 -2.047,0.637 -2.25,0.192 -0.254,-0.567 1.301,-0.906 1.742,-1.035 0.629,-0.176 1.695,-0.551 2.297,-0.203 m 27.793,26.683 c 0.215,-1.121 -0.039,-2.473 -0.809,-2.914 -1.797,-1.027 -2.867,3.762 -1.121,4.606 1.11,0.535 1.766,-0.836 1.93,-1.692 m -1.059,-2.707 c 0.36,0.524 0.207,1.641 0.149,2.367 -0.031,0.442 -0.106,2.133 -0.735,1.809 -0.492,-0.258 -0.164,-2.801 -0.058,-3.442 0.078,-0.46 0.113,-0.789 0.644,-0.734 M 70.801,46.125 c 0.101,0.422 0.605,0.805 0.965,0.988 0.367,0.192 1.097,0.328 1.55,0.367 1.024,0.094 2.555,-0.492 2.258,-1.527 -0.285,-0.98 -1.57,-1.32 -2.5,-1.379 -1.051,-0.066 -2.547,0.367 -2.273,1.551 M 71.07,45.66 c 0.52,-0.375 1.582,-0.172 2.289,-0.082 0.914,0.113 1.981,0.082 1.926,0.797 -0.676,0.438 -2.652,0.105 -3.492,-0.074 C 71.406,46.219 70.992,46.137 71.07,45.66 M 7.996,39.574 c 0.399,0.106 2.981,0.309 3.731,0.371 1.078,0.094 0.398,0.399 0.91,0.43 0.14,-0.199 0.176,-0.75 0.148,-1.031 -0.555,-0.063 -0.035,0.187 -0.551,0.242 l -2.195,-0.18 2.828,-0.926 0.082,-1.21 c -0.328,0.054 -0.242,0.062 -0.347,0.316 L 9.207,37.359 C 8.547,37.301 8.625,37.09 8.605,37.059 8.5,36.879 8.715,36.984 8.473,36.906 c -0.227,0.063 -0.133,0 -0.184,0.192 -0.012,0.05 -0.027,0.242 -0.035,0.308 -0.039,0.336 -0.098,0.399 -0.004,0.567 0.422,0.05 0.098,0.035 0.316,-0.192 0.137,-0.144 0.188,-0.113 0.411,-0.101 l 2.746,0.265 -3.684,1.223 z m 36.203,31.914 c 0,0.364 0.215,-0.097 0.328,0.399 0.032,0.136 0.047,0.449 0.063,0.613 l 0.262,2.426 c 0.136,1.25 -0.164,0.394 -0.164,1.07 0.886,-0.027 1.679,-0.078 2.171,-0.598 0.918,-0.968 0.715,-3.261 -0.476,-3.968 -0.36,-0.211 -0.625,-0.258 -1.11,-0.203 -0.503,0.062 -1.074,0.031 -1.074,0.261 m 1.653,4.102 c -0.219,-0.383 -0.442,-3.945 -0.426,-3.985 0.129,-0.367 0.59,0.028 0.676,0.215 0.261,0.578 0.425,2.2 0.425,2.817 0,0.566 -0.121,0.965 -0.675,0.953 M 27.738,69.047 c 0.219,-0.258 0.461,-0.77 0.246,-1.207 -0.211,-0.43 -1.332,-1.195 -1.789,-1.399 -0.3,0.364 0.106,0.122 -0.054,0.551 -0.039,0.102 -0.254,0.387 -0.336,0.512 l -1.696,2.527 c -0.281,0.266 -0.25,-0.109 -0.492,0.219 0.11,0.145 1.055,0.836 1.258,0.824 0.23,-0.386 -0.191,-0.191 0.047,-0.621 l 1.004,-1.527 c 0.535,0.597 -0.176,0.953 -0.539,1.929 -0.157,0.422 0.054,0.84 0.437,0.95 0.399,0.113 0.785,-0.242 0.848,-0.516 -0.422,-0.211 -0.113,0.149 -0.574,0.188 0.078,-0.489 1.043,-1.489 0.398,-2.278 0.449,0.012 0.891,0.254 1.242,-0.152 m -1.675,-0.363 c 0.246,-0.508 0.585,-0.887 0.89,-1.36 0.918,0.141 0.133,1.289 -0.265,1.457 -0.258,0.106 -0.415,-0.027 -0.625,-0.097 M 71.855,58.223 c -0.222,0.047 -0.07,0.082 -0.242,0.121 -0.222,0.043 -1.164,-0.633 -1.707,-0.805 l 0.375,-0.601 c 0.336,0.089 0.692,0.324 1.016,0.488 0.113,0.058 0.383,0.176 0.476,0.254 0.34,0.273 -0.058,0.25 0.278,0.453 0.156,-0.035 0.137,-0.106 0.226,-0.285 0.196,-0.403 0.563,-0.895 0.34,-1 C 72.348,56.719 72.59,57 72.219,56.906 L 71.211,56.387 C 70.738,56.148 70.305,55.934 69.828,55.691 69.426,55.488 68.922,55.34 68.824,55.109 l -0.152,-0.332 c -0.246,0.125 -0.375,0.528 -0.5,0.766 -0.02,0.035 -0.203,0.398 -0.207,0.41 -0.016,0.09 -0.051,0.102 0.094,0.156 0.445,0.164 -0.039,-0.347 0.66,0.016 l 1.234,0.637 -0.348,0.625 c -0.285,-0.09 -0.613,-0.313 -0.91,-0.453 -0.906,-0.43 -0.465,-0.344 -0.652,-0.676 -0.254,-0.031 -0.18,-0.074 -0.309,0.203 -0.168,0.359 -0.445,0.758 -0.504,1.031 0.559,0.113 0.254,-0.168 0.629,-0.012 l 1.61,0.821 c 0.367,0.187 0.711,0.359 1.082,0.547 1.269,0.632 0.203,0.402 0.871,0.73 L 72.008,58.34 Z M 15.059,53.207 c -0.329,0.156 0.125,0.211 -0.36,0.492 l -2.937,1.805 c -0.371,0.121 -0.407,-0.258 -0.403,-0.313 0.043,-0.328 3.141,-2.503 3.454,-2.882 l -0.149,-0.403 c -0.488,0.028 -2.879,0.578 -3.652,0.746 -0.719,0.157 -0.746,-0.074 -1.16,-0.004 0.058,0.274 0.195,0.493 0.316,0.731 0.32,0.629 0.348,-0.215 0.348,-0.215 0.3,-0.16 0.406,-0.215 0.828,-0.25 l 0.383,0.813 c -1.375,0.996 -0.446,0.253 -1.157,0.398 0.043,0.609 1.664,3.109 1.828,3.555 0.231,-0.059 0.551,-0.25 0.747,-0.36 0.562,-0.324 0.578,-0.187 0.625,-0.476 -0.407,-0.27 -1.469,0.472 -1.711,-0.426 0.023,-0.227 1.586,-1.059 1.843,-1.207 l 1.418,-0.836 c 0.371,-0.109 0.172,0.238 0.465,0.078 0.145,-0.14 -0.34,-0.797 -0.504,-1.078 -0.113,-0.191 -0.093,-0.223 -0.222,-0.168 M 13.23,52.504 C 13.055,52.676 12.164,53.41 12,53.484 L 11.684,52.82 Z"
           style="fill:#e63230;fill-opacity:1;fill-rule:evenodd;stroke:none"
           id="path4344" /><path
           d="m 63.25,24.414 c 0.328,-0.117 0.602,-0.476 0.719,-0.914 0.187,-0.73 -0.602,-2.039 -0.957,-2.387 -0.168,-0.156 -0.707,-0.679 -0.973,-0.664 -0.004,0.192 0.078,0.176 0.215,0.352 0.137,0.176 0.144,0.199 0.184,0.48 0.097,0.688 0.32,2.035 0.636,2.641 0.047,0.09 0.074,0.125 0.106,0.234 z M 30.879,11.047 c 0.988,-0.223 0.34,-0.055 1.16,-0.336 0.172,0.121 0.328,0.394 0.395,0.676 l -1.414,0.765 c -0.336,0.145 -0.403,0.016 -0.704,0.078 0.211,0.454 1.25,1.555 1.727,0.719 0.141,-0.246 0.281,-0.422 0.488,-0.551 0.063,0.582 -0.34,1.149 -0.601,1.395 -0.157,0.145 -0.395,0.285 -0.305,0.633 0.074,0.297 0.23,0.472 0.527,0.5 0.149,-0.043 0.532,-0.703 0.801,-0.867 0.086,0.535 0.32,2.015 0.813,2.089 0.113,-0.738 -0.157,-1.863 -0.235,-2.617 -0.047,-0.414 0.25,-0.679 0.414,-0.984 0.278,-0.5 0.235,-0.613 0.243,-1.238 -0.141,0.117 -0.153,0.339 -0.336,0.695 -0.145,0.273 -0.266,0.437 -0.469,0.594 -0.153,-1.438 0.715,-1.442 0.027,-1.758 -0.492,-0.227 0.102,-0.195 -0.406,-0.387 -0.086,-0.035 -0.145,-0.031 -0.277,-0.094 0.234,-0.218 0.793,-0.246 0.964,-0.496 0.223,-0.64 -0.359,-1.058 -0.894,-1.152 0.09,0.523 0.152,0.426 -0.18,0.762 -0.347,0.351 -0.976,1.074 -1.394,1.308 -0.18,0.106 -0.215,0.082 -0.344,0.266 m 4.137,-2.77 c 0.5,0.496 0.359,-0.199 0.734,1.465 0.102,0.465 0.344,1.434 0.344,1.875 -0.27,0.215 -1.477,1.18 -1.778,1.188 0.039,-0.356 0.864,-1.078 1.129,-1.285 0.215,-0.172 0.321,-0.168 0.305,-0.563 C 35.059,10.445 35.051,10.73 34.777,10.586 34.93,10.145 35.602,10.313 35.645,9.738 35.516,9.492 35.289,9.324 34.961,9.289 34.648,9.258 34.16,9.297 33.941,9.461 l 0.145,0.144 c 0.152,0.094 0.348,0.094 0.633,0.368 -0.125,0.554 -0.524,0.59 -0.379,1.187 l 0.535,0.117 c 0.129,0.629 -1.496,1.782 -0.77,2.246 0.54,0.348 1.196,-0.761 2.141,-1.128 0.133,0.621 0.777,3.671 1.258,3.605 0.336,-0.836 -0.438,-3.512 -0.379,-4 0.043,-0.387 0.68,-0.633 1.023,-0.762 0.887,-0.332 0.059,-0.89 -0.46,-0.636 -0.258,0.125 -0.454,0.328 -0.75,0.418 C 36.543,10.113 36.875,7.984 35.973,7.816 35.523,7.73 35.156,7.977 35.016,8.277 m 29.953,8.219 c 0.769,0.145 0.781,0.145 -0.051,0.817 l -1.105,0.863 c -0.161,0.129 -0.348,0.269 -0.614,0.226 -0.422,-0.066 -0.281,-0.125 -0.621,-0.285 -1.254,-0.582 -0.851,-0.582 -1.172,-0.762 -0.16,0.293 -0.234,1.411 0.356,1.801 l 0.203,0.153 c -0.52,0.214 -0.625,0.379 -1.356,0.445 -0.652,0.059 -0.988,0.059 -1.531,-0.16 0.055,-0.27 0.035,-0.059 0.129,-0.305 l -0.457,0.106 c -0.016,0.003 -0.031,0.007 -0.043,0.011 -0.012,0.004 -0.031,0.016 -0.039,0.02 l -0.078,0.043 c 0.293,0.656 0.812,1.019 1.476,1.328 0.731,0.336 2.204,-0.645 3.098,-0.965 0.738,-0.262 2.082,0.742 2.785,0.477 0.059,-0.024 0.438,-0.18 0.496,-0.219 0.016,-0.918 -0.875,-1.051 -1.16,-1.625 0.68,-0.477 1.278,-0.781 1.106,-1.453 -0.059,-0.227 -0.301,-0.746 -0.485,-0.821 -0.156,-0.062 -0.332,-0.011 -0.496,0.039 -0.465,0.145 -0.387,0.137 -0.441,0.266 m 0.101,2.356 c -0.027,0.015 0.145,0.168 -0.207,0.023 -0.074,-0.027 -0.058,-0.043 -0.125,-0.113 0.242,-0.082 0.203,-0.102 0.332,0.09 m 7.758,8.816 c -0.273,0.02 -0.699,0.395 -0.894,0.598 -0.293,0.293 -0.383,0.453 -0.434,0.98 -0.168,-0.062 -0.254,-0.238 -0.527,-0.351 -0.227,-0.09 -0.481,-0.067 -0.692,-0.145 0.082,-0.312 0.352,-0.363 0.485,-0.668 -0.485,-0.086 -1.024,0.43 -1.598,0.469 -0.547,0.035 -0.441,-0.008 -0.699,0.351 -0.133,0.18 -0.387,0.489 -0.141,0.735 0.195,0.187 0.637,-0.094 0.879,-0.16 1.684,-0.493 1.598,-0.411 2.238,0.468 0.157,0.211 0.387,0.41 0.563,0.618 0.652,0.761 1.676,1.242 1.691,1.667 -0.316,0.063 -0.554,-0.085 -0.812,-0.183 -0.477,-0.184 -0.305,-0.164 -0.59,-0.422 -0.613,-0.547 -0.754,-0.566 -1.25,-1.227 -0.258,-0.343 -0.801,-0.226 -0.906,0.184 -0.121,0.481 0.582,0.586 0.894,1.055 -0.281,0.004 -0.387,-0.09 -0.617,-0.051 -0.238,0.035 -0.285,0.164 -0.418,0.262 -0.145,-0.153 -0.273,-0.211 -0.426,-0.368 -0.41,-0.414 -0.734,-1.023 -1.34,-1 -0.171,0.219 -0.183,0.372 -0.328,0.676 -0.109,0.235 -0.234,0.41 -0.273,0.684 -0.07,0.492 -0.227,1.469 0.109,1.754 0.387,0.324 0.871,0.433 1.469,0.273 1.008,-0.273 0.863,-0.512 1.352,-0.613 0.203,0.168 0.23,0.266 0.394,0.441 0.18,0.192 0.207,0.36 0.449,0.418 0.293,-0.215 0.282,-0.715 0.028,-1.004 -0.141,-0.156 -0.575,-0.484 -0.555,-0.722 0.305,-0.164 0.598,0.004 0.883,0.109 0.496,0.184 0.32,0.156 0.785,0.027 l 0.816,0.844 c 0.457,0.297 0.836,0.153 1.012,-0.301 0.258,-0.668 -0.336,-1.312 -0.691,-1.703 -0.079,-0.086 -0.11,-0.113 -0.196,-0.195 -0.187,-0.18 -0.09,-0.008 -0.191,-0.242 0.328,0.078 0.316,0.183 0.601,0.277 0.61,0.195 1.403,0.36 1.602,-0.387 0.152,-0.574 -0.055,-1.003 -0.355,-1.253 -0.422,-0.352 -0.622,-0.262 -1.2,-0.258 -0.007,-0.375 0.067,-0.582 -0.234,-0.805 -0.063,0.086 0,-0.039 -0.063,0.137 l -0.113,0.328 c -0.18,0.265 -0.785,0.371 -0.555,1.211 -0.429,-0.016 -0.808,-0.129 -1.035,-0.492 0.239,-0.075 0.5,-0.442 0.645,-0.59 0.375,-0.383 0.562,-0.375 0.625,-0.571 -0.16,-0.062 -0.375,-0.054 -0.574,-0.031 z m 0.481,2.602 c 0.101,-0.145 0.171,-0.192 0.347,-0.282 0.231,-0.125 0.578,-0.328 0.942,-0.261 0.191,0.031 1.086,0.816 -0.18,0.617 -0.352,-0.055 -0.738,-0.043 -1.109,-0.074 m -5.055,1.05 c 0.191,-0.019 0.758,0.453 0.898,0.582 0.356,0.325 0.688,0.426 0.692,0.864 -0.469,0.257 -1.406,1.074 -1.649,-0.414 -0.14,-0.848 0.02,-0.911 0.032,-0.997 0.003,-0.019 0.015,-0.023 0.027,-0.035 M 21.746,14.988 c -0.156,-0.289 -0.121,-0.433 -0.519,-0.511 -0.356,-0.075 -0.559,0.023 -0.84,0.144 -0.336,0.149 -0.41,0.109 -0.594,0.418 -0.113,0.184 -0.277,0.465 -0.273,0.699 0.179,0.02 2.312,-0.621 1.613,0.532 -0.356,0.589 -0.742,1.457 -1.043,1.769 l -0.086,0.094 c -0.441,-0.172 -0.469,-0.238 -0.559,-0.746 -0.054,-0.301 -0.039,-0.907 -0.273,-1.086 -0.43,-0.176 -0.785,0.074 -0.938,0.332 -0.179,0.301 -0.203,0.758 -0.269,1.133 -0.137,0.75 -0.406,0.879 -0.008,0.847 0.391,-0.031 0.703,-0.332 1.004,-0.445 0.535,0.75 1.566,0.437 1.703,1.176 -0.703,0.14 -1.367,-0.535 -1.812,-0.297 -0.133,0.422 0.078,0.461 0.316,0.586 l 2.375,2.457 c 0.43,0.43 0.547,0.617 1.328,0.328 0.063,-0.645 -0.18,-0.289 -0.742,-1.023 -0.266,-0.352 -0.422,-0.813 -0.777,-0.985 0.043,0.305 0.191,0.473 0.273,0.758 -0.211,-0.105 -1.09,-1.121 -1.168,-1.258 L 21.375,20 c 0.195,-0.598 0.031,-1.312 -0.613,-1.621 l -0.278,-0.156 c 0.633,-0.039 0.579,-0.184 0.848,-0.633 0.191,-0.32 0.352,-0.629 0.512,-0.934 0.445,0.305 1.511,3.266 1.57,3.844 0.024,0.273 -0.101,0.465 0.02,0.645 0.304,-0.051 0.3,-0.348 0.328,-0.899 0.011,-0.316 -0.094,-0.816 -0.153,-1.117 -0.062,-0.34 -0.125,-0.691 -0.211,-1.031 -0.085,-0.344 -0.265,-0.598 -0.359,-0.934 0.113,-0.238 0.336,-0.48 0.684,-0.496 0.273,0.262 1.277,2.148 1.308,2.758 l -0.937,0.144 c 0.09,0.254 0.461,0.321 0.707,0.383 0.269,0.07 0.554,0.305 0.808,0.192 0.063,-0.047 0.121,-0.625 0.09,-0.809 -0.105,-0.598 -0.551,-1.648 -0.804,-2.168 -0.215,-0.441 -0.34,-1.055 -0.79,-1.184 -0.32,-0.089 -0.531,-0.027 -0.773,0.118 -0.32,0.191 -0.262,0.367 -0.516,0.523 L 22.27,15.809 c 0.109,-0.164 0.175,-0.329 0.296,-0.465 0.133,-0.149 0.262,-0.242 0.387,-0.403 0.106,-0.14 0.527,-0.918 0.473,-1.078 -0.067,-0.199 -0.321,-0.164 -0.555,-0.14 -0.598,0.062 -0.801,0.804 -1.016,1.132 -0.007,0.008 -0.019,0.024 -0.023,0.036 -0.008,0.007 -0.019,0.023 -0.027,0.035 z M 48.953,8.48 c -0.09,0.192 0.047,0.29 0.137,0.461 0.117,0.215 0.121,0.36 0.066,0.594 -0.129,0.547 -0.199,0.742 -0.551,0.86 -0.39,0.132 -1.195,0.398 -1.621,0.457 -0.281,0.039 -0.449,-0.024 -0.726,0.003 0.047,0.286 0.398,1.004 0.855,1.008 0.285,0.004 0.367,-0.156 0.649,-0.234 0.293,-0.086 0.535,-0.133 0.843,-0.149 -0.218,0.918 -0.218,0.93 -1.015,1.27 -0.277,0.117 -0.508,0.262 -0.762,0.363 -0.332,0.129 -0.648,0.082 -0.887,0.285 -0.035,0.59 0.606,0.852 0.887,1.122 0.356,0.347 0.461,0.816 0.727,1.289 0.476,-0.051 0.621,-0.27 0.769,-0.504 0.481,0 1.016,0.054 1.489,0.011 0.98,-0.089 1.027,-0.503 1.195,-0.023 0.031,0.09 0.027,0.09 0.074,0.203 0.078,0.18 0.098,0.289 0.16,0.461 0.106,0.297 0.317,0.527 0.586,0.648 0.363,0.165 0.719,0.024 1.039,0.09 0.367,0.078 0.418,0.344 0.875,0.239 -0.109,-0.887 -1.64,-1.762 -1.988,-2.528 0.418,-0.926 1.039,-1.25 0.426,-1.75 -0.317,-0.261 -0.297,-0.129 -0.598,-0.273 0.285,-0.813 1.832,-0.559 1.992,-0.899 0.028,-0.308 -0.117,-0.492 -0.371,-0.578 -0.262,-0.09 -0.515,-0.152 -0.816,-0.101 0.09,-0.414 0.527,-1.008 0.48,-1.457 -0.054,-0.496 -0.582,-0.828 -1.179,-0.707 -0.024,0.363 0.484,0.316 0.222,1.121 -0.07,0.215 -0.387,0.843 -0.512,1.008 -0.105,0.136 -0.871,0.339 -1.105,0.414 -0.496,0.152 -0.617,0.296 -0.977,0.519 0.227,-0.715 0.247,-0.242 0.766,-0.887 C 50.027,10.418 49.766,10.504 49.859,10.137 49.926,9.891 50.082,9.605 50.098,9.344 50.137,8.801 49.402,8.363 48.953,8.48 m -0.555,6.477 c 0.606,-0.004 1.731,-0.359 2.055,-0.695 0.094,-0.336 -0.297,-0.664 -0.558,-0.782 -0.575,-0.265 -0.887,-0.085 -0.926,-0.484 0.211,-0.086 1.172,0.145 1.461,0.227 -0.129,-0.614 0.203,-0.735 0.312,-1.301 -0.558,-0.055 -0.617,-0.473 -1.051,-0.109 -0.324,0.273 -0.464,0.363 -0.644,0.82 -0.18,0.453 -0.609,1.867 -0.649,2.324 m -1.316,-0.785 c 0.117,-0.281 0.266,-0.344 0.5,-0.527 0.231,-0.18 0.254,-0.329 0.531,-0.469 l -0.386,1.508 C 47.496,14.656 47.16,14.32 47.082,14.172 m 3.527,-0.82 c 0.258,-0.094 0.559,-0.219 0.868,-0.211 0,0.234 -0.262,0.492 -0.43,0.578 -0.211,-0.074 -0.274,-0.188 -0.438,-0.367 M 12.375,32.949 c 0.43,0.184 0.852,0.352 1.273,0.528 0.536,0.218 0.668,0.418 1.332,0.203 0.813,-0.262 0.922,-1.278 1.282,-2.317 0.215,-0.609 0.129,-0.847 0.562,-1.238 0.41,-0.367 0.887,-0.164 1.317,-0.477 -0.129,-0.601 -0.661,-0.933 -1.188,-1.168 -1.449,-0.64 -3.578,-1.277 -4.734,-2.296 -0.321,-0.286 -0.449,-0.27 -0.895,-0.098 -1.125,0.434 -1.496,0.344 -1.73,1.812 -0.512,3.207 0.422,2.383 0.793,3.567 -0.258,0.094 -0.391,0.066 -0.508,0.32 z m 0.621,-0.679 1.781,0.753 0.321,-0.949 c -0.164,0.145 -0.426,0.266 -0.688,0.074 -0.238,-0.175 -0.172,-0.398 -0.219,-0.738 -0.222,0.086 -0.496,0.266 -0.765,0.281 -0.219,0.012 -0.336,0 -0.485,-0.097 l -0.355,-0.211 c -0.301,-0.195 -0.289,-0.875 -0.434,-1.254 -0.07,-0.188 -0.097,-0.152 -0.304,-0.242 -0.176,0.222 -0.133,0.812 -1.133,0.789 0.133,-0.719 0.265,-0.867 0.055,-1.641 -0.079,-0.281 0.046,-0.48 0.226,-0.633 0.27,-0.23 0.414,-0.199 0.813,-0.179 0.16,0.59 0.125,1.078 0.714,1.261 l 0.508,-0.273 c 0.114,-0.055 0.032,0.008 0.117,-0.066 -0.093,-0.329 -0.347,-0.731 0.321,-0.969 0.183,-0.067 0.449,-0.067 0.578,0.062 0.332,0.317 -0.176,0.707 -0.274,0.887 l 1.801,0.508 c 0.102,0.551 -0.234,0.969 -0.355,2.023 l 0.16,-0.336 c 0.187,-0.578 0.344,-1.617 0.871,-1.937 l 0.223,-0.121 c 0.011,-0.008 0.027,-0.02 0.039,-0.024 l 0.074,-0.054 C 15.402,28.688 14.324,28.172 13.07,27.695 l -1.785,-0.746 c -1.074,-0.344 -0.711,0.828 -0.844,1.571 -0.128,0.71 -0.875,1.023 -0.55,1.793 0.289,0.687 0.761,0.957 1.375,1.156 0.679,0.219 1.113,0.566 1.73,0.801 m 0.438,-2.946 c 0.273,0.481 0.531,0.688 0.89,1 0.082,0.071 0.129,0.11 0.192,0.16 0.168,0.137 0.047,0.18 0.16,0.067 0.097,-0.098 0.07,-0.403 -0.008,-0.516 -0.066,-0.101 -0.887,-0.676 -1.234,-0.711 m -0.454,1.231 c 0.329,-0.047 0.415,0.05 0.551,0.273 -0.082,0.211 -0.121,0.301 -0.383,0.324 -0.136,-0.164 -0.179,-0.297 -0.168,-0.597"
           style="fill:#e63230;fill-opacity:1;fill-rule:evenodd;stroke:none"
           id="path4346" /></g></g></g></svg>
